<svg width="90" height="90" viewBox="0 0 90 90" fill="none" xmlns="http://www.w3.org/2000/svg">
<rect width="90" height="90" rx="8" fill="#7F56D9"/>
<g clip-path="url(#clip0_708_287)">
<path d="M42.8569 50.0333C42.6791 50.0333 42.5013 50.1222 42.3236 50.3C42.1458 50.4778 42.0569 50.6778 42.0569 50.9C42.0569 51.1222 42.1458 51.3 42.3236 51.4333C42.5013 51.5667 42.6791 51.6333 42.8569 51.6333C43.0347 51.6333 43.2125 51.5667 43.3902 51.4333C43.568 51.3 43.6569 51.1222 43.6569 50.9C43.6569 50.6778 43.568 50.4778 43.3902 50.3C43.2125 50.1222 43.0347 50.0333 42.8569 50.0333ZM56.8569 27.3667H40.9902L36.0569 22.4333C35.4347 21.8111 34.7013 21.5 33.8569 21.5C33.0125 21.5 32.3013 21.7889 31.7236 22.3667C31.1458 22.9444 30.8569 23.6556 30.8569 24.5C30.8569 25.3444 31.1236 26.0778 31.6569 26.7L32.4569 27.3667H28.8569C27.7902 27.3667 26.8791 27.7667 26.1236 28.5667C25.368 29.3667 24.9902 30.3 24.9902 31.3667V36.4333C24.9902 36.7 25.0569 36.9 25.1902 37.0333C25.3236 37.1667 25.5013 37.2333 25.7236 37.2333C25.9458 37.2333 26.1458 37.1667 26.3236 37.0333C26.5013 36.9 26.5902 36.7 26.5902 36.4333V31.3667C26.5902 30.6556 26.8125 30.0778 27.2569 29.6333C27.7013 29.1889 28.2347 28.9667 28.8569 28.9667H34.0569L43.9236 38.8333L43.7902 39.6333C43.7902 41.0556 44.2791 42.2556 45.2569 43.2333C46.1458 44.1222 47.1013 44.7444 48.1236 45.1C49.1458 45.4556 50.4125 45.6333 51.9236 45.6333C52.6347 45.6333 53.3902 45.5889 54.1902 45.5C54.5458 45.5 54.768 45.3444 54.8569 45.0333C54.9458 44.7222 54.9013 44.4333 54.7236 44.1667C54.2791 43.7222 54.0125 43.2333 53.9236 42.7C53.8347 42.3444 53.8347 41.7222 53.9236 40.8333C54.0125 39.8556 54.0125 39.0556 53.9236 38.4333C53.7458 37.5444 53.3236 36.7667 52.6569 36.1C51.9902 35.4333 51.2791 34.9667 50.5236 34.7C49.768 34.4333 48.9458 34.3889 48.0569 34.5667L42.5902 28.9667H56.8569C57.4791 28.9667 58.0347 29.1889 58.5236 29.6333C59.0125 30.0778 59.2569 30.6556 59.2569 31.3667V47.3667H26.5902V43.5C26.5902 43.3222 26.5013 43.1444 26.3236 42.9667C26.1458 42.7889 25.9458 42.7 25.7236 42.7C25.5013 42.7 25.3236 42.7889 25.1902 42.9667C25.0569 43.1444 24.9902 43.3222 24.9902 43.5V50.4333C24.9902 51.5 25.368 52.4111 26.1236 53.1667C26.8791 53.9222 27.7902 54.3 28.8569 54.3H38.9902V56.8333C37.9236 56.8333 37.0125 57.2111 36.2569 57.9667C35.5013 58.7222 35.1236 59.6333 35.1236 60.7C35.1236 60.9667 35.1902 61.1667 35.3236 61.3C35.4569 61.4333 35.6569 61.5 35.9236 61.5H49.7902C50.0569 61.5 50.2569 61.4333 50.3902 61.3C50.5236 61.1667 50.5902 60.9667 50.5902 60.7C50.5902 59.6333 50.2125 58.7222 49.4569 57.9667C48.7013 57.2111 47.7902 56.8333 46.7236 56.8333V54.3H56.8569C57.9236 54.3 58.8347 53.9222 59.5902 53.1667C60.3458 52.4111 60.7236 51.5 60.7236 50.4333V31.3667C60.7236 30.3 60.3458 29.3667 59.5902 28.5667C58.8347 27.7667 57.9236 27.3667 56.8569 27.3667ZM32.8569 23.5C33.1236 23.2333 33.4569 23.1 33.8569 23.1C34.2569 23.1 34.5902 23.2333 34.8569 23.5L42.7236 31.3667L40.7236 33.5L32.8569 25.6333C32.5013 25.2778 32.3236 24.9 32.3236 24.5C32.3236 24.1 32.5013 23.7667 32.8569 23.5ZM46.4569 42.1667C46.7236 41.7222 47.0791 41.3444 47.5236 41.0333C47.968 40.7222 48.5013 40.5222 49.1236 40.4333C50.4569 40.3444 51.568 39.8111 52.4569 38.8333C52.4569 39.1889 52.4125 39.8111 52.3236 40.7C52.3236 41.4111 52.3236 41.9889 52.3236 42.4333C52.3236 43.0556 52.4569 43.6333 52.7236 44.1667C51.3013 44.1667 50.0791 44.0111 49.0569 43.7C48.0347 43.3889 47.168 42.8778 46.4569 42.1667ZM51.5236 37.1C51.5236 37.1 51.568 37.1444 51.6569 37.2333C51.3902 37.6778 51.0125 38.0556 50.5236 38.3667C50.0347 38.6778 49.5236 38.8778 48.9902 38.9667C47.568 38.9667 46.4125 39.5444 45.5236 40.7C45.4347 40.3444 45.3902 39.9889 45.3902 39.6333C45.3902 38.6556 45.7458 37.8111 46.4569 37.1C47.168 36.3889 48.0125 36.0333 48.9902 36.0333C49.968 36.0333 50.8125 36.3889 51.5236 37.1ZM45.2569 35.9L44.1902 36.9667L41.7902 34.5667L43.9236 32.4333L46.3236 34.9667L45.2569 35.9ZM48.8569 59.9H36.8569C37.0347 59.4556 37.3236 59.1 37.7236 58.8333C38.1236 58.5667 38.5458 58.4333 38.9902 58.4333H46.7236C47.168 58.4333 47.6125 58.5667 48.0569 58.8333C48.5013 59.1 48.768 59.4556 48.8569 59.9ZM45.2569 56.8333H40.4569V54.3H45.2569V56.8333ZM56.8569 52.7H28.8569C28.2347 52.7 27.7013 52.4778 27.2569 52.0333C26.8125 51.5889 26.5902 51.0556 26.5902 50.4333V48.9667H59.2569V50.4333C59.2569 51.0556 59.0125 51.5889 58.5236 52.0333C58.0347 52.4778 57.4791 52.7 56.8569 52.7ZM25.7902 40.8333C25.968 40.8333 26.1458 40.7444 26.3236 40.5667C26.5013 40.3889 26.5902 40.1889 26.5902 39.9667C26.5902 39.7444 26.5013 39.5667 26.3236 39.4333C26.1458 39.3 25.9458 39.2333 25.7236 39.2333C25.5013 39.2333 25.3236 39.3 25.1902 39.4333C25.0569 39.5667 24.9902 39.7444 24.9902 39.9667C24.9902 40.1889 25.0569 40.3889 25.1902 40.5667C25.3236 40.7444 25.5236 40.8333 25.7902 40.8333Z" fill="white"/>
</g>
<defs>
<clipPath id="clip0_708_287">
<rect width="40.02" height="40" fill="white" transform="matrix(1 0 0 -1 24.9805 61.5)"/>
</clipPath>
</defs>
</svg>
