<svg width="26" height="26" viewBox="0 0 26 26" fill="none" xmlns="http://www.w3.org/2000/svg">
<path d="M22.7503 4.33333H2.16699V6.5H4.65866L8.21199 16.25C8.4355 16.8822 8.84907 17.4298 9.39601 17.8176C9.94294 18.2055 10.5965 18.4148 11.267 18.4167H20.5837V16.25H11.267C11.0444 16.2499 10.8271 16.1812 10.6449 16.0533C10.4627 15.9253 10.3244 15.7444 10.2487 15.535L9.75033 14.0833H19.8037C20.2739 14.0827 20.7311 13.929 21.1063 13.6457C21.4815 13.3623 21.7544 12.9646 21.8837 12.5125L23.8337 5.70917C23.8777 5.56691 23.8919 5.41709 23.8755 5.26909C23.859 5.12108 23.8122 4.97806 23.738 4.84895C23.6638 4.71984 23.5638 4.60741 23.4441 4.5187C23.3245 4.42998 23.1879 4.36688 23.0428 4.33333C22.946 4.31756 22.8472 4.31756 22.7503 4.33333ZM19.7712 11.9167H8.93783L6.96616 6.5H21.3095L19.7712 11.9167Z" fill="#5E6775"/>
<path d="M11.375 22.75C12.2725 22.75 13 22.0225 13 21.125C13 20.2275 12.2725 19.5 11.375 19.5C10.4775 19.5 9.75 20.2275 9.75 21.125C9.75 22.0225 10.4775 22.75 11.375 22.75Z" fill="#5E6775"/>
<path d="M17.875 22.75C18.7725 22.75 19.5 22.0225 19.5 21.125C19.5 20.2275 18.7725 19.5 17.875 19.5C16.9775 19.5 16.25 20.2275 16.25 21.125C16.25 22.0225 16.9775 22.75 17.875 22.75Z" fill="#5E6775"/>
</svg>
