<svg width="90" height="90" viewBox="0 0 90 90" fill="none" xmlns="http://www.w3.org/2000/svg">
<rect width="90" height="90" rx="8" fill="#DF385B"/>
<path d="M62.6 24.3001H48.2C47.5778 24.3001 47.0222 24.5223 46.5333 24.9667C46.0444 25.4112 45.8 25.9889 45.8 26.7001V35.3667L36.4667 37.9001H27.6667C26.9556 37.9001 26.3333 38.1667 25.8 38.7001C25.2667 39.2334 25 39.8556 25 40.5667V46.1667C25 46.8778 25.2667 47.4778 25.8 47.9667C26.3333 48.4556 26.9556 48.7001 27.6667 48.7001H28.8667L29.8 56.4334C29.9778 57.4112 30.5111 58.0778 31.4 58.4334C31.8444 58.6112 32.3333 58.6778 32.8667 58.6334C33.4 58.589 33.8444 58.4334 34.2 58.1667C35 57.5445 35.3111 56.7001 35.1333 55.6334L34.2 48.7001H36.4667L56.0667 54.3001C56.3333 54.3001 56.5778 54.2334 56.8 54.1001C57.0222 53.9667 57.1333 53.7667 57.1333 53.5001V38.4334H62.6C63.3111 38.4334 63.8889 38.1889 64.3333 37.7001C64.7778 37.2112 65 36.6556 65 36.0334V26.7001C65 25.9889 64.7778 25.4112 64.3333 24.9667C63.8889 24.5223 63.3111 24.3001 62.6 24.3001ZM26.6 46.1667V40.5667C26.6 40.3001 26.6889 40.0556 26.8667 39.8334C27.0444 39.6112 27.3111 39.5001 27.6667 39.5001H35.8V47.2334H27.6667C27.3111 47.2334 27.0444 47.1223 26.8667 46.9001C26.6889 46.6778 26.6 46.4334 26.6 46.1667ZM33.6667 55.9001C33.6667 56.3445 33.5111 56.6778 33.2 56.9001C32.8889 57.1223 32.5111 57.1667 32.0667 57.0334C31.6222 56.9001 31.4 56.6112 31.4 56.1667L30.4667 48.7001H32.7333L33.6667 55.9001ZM55.5333 52.4334L37.4 47.3667V39.3667L46.0667 36.8334C46.2444 37.2778 46.5333 37.6556 46.9333 37.9667C47.3333 38.2778 47.7556 38.4334 48.2 38.4334H50.2L51.5333 39.7667C51.7111 39.8556 51.9111 39.9001 52.1333 39.9001C52.3556 39.9001 52.5111 39.8556 52.6 39.7667L53.9333 38.4334H55.5333V52.4334ZM63.4 36.0334C63.4 36.2112 63.3333 36.3889 63.2 36.5667C63.0667 36.7445 62.8667 36.8334 62.6 36.8334H53.6667C53.4889 36.8334 53.3111 36.9223 53.1333 37.1001L52.0667 38.0334L51.1333 37.1001C50.9556 36.9223 50.7778 36.8334 50.6 36.8334H48.2C48.0222 36.8334 47.8444 36.7445 47.6667 36.5667C47.4889 36.3889 47.4 36.2112 47.4 36.0334V26.7001C47.4 26.4334 47.4889 26.2334 47.6667 26.1001C47.8444 25.9667 48.0222 25.9001 48.2 25.9001H62.6C62.8667 25.9001 63.0667 25.9667 63.2 26.1001C63.3333 26.2334 63.4 26.4334 63.4 26.7001V36.0334ZM60.0667 27.5001H50.7333C50.3778 27.5001 50.1333 27.6112 50 27.8334C49.8667 28.0556 49.8667 28.3001 50 28.5667C50.1333 28.8334 50.3778 28.9667 50.7333 28.9667H60.0667C60.4222 28.9667 60.6667 28.8334 60.8 28.5667C60.9333 28.3001 60.9333 28.0556 60.8 27.8334C60.6667 27.6112 60.4222 27.5001 60.0667 27.5001ZM60.0667 30.5667H50.7333C50.3778 30.5667 50.1333 30.7001 50 30.9667C49.8667 31.2334 49.8667 31.5001 50 31.7667C50.1333 32.0334 50.3778 32.1667 50.7333 32.1667H60.0667C60.4222 32.1667 60.6667 32.0334 60.8 31.7667C60.9333 31.5001 60.9333 31.2334 60.8 30.9667C60.6667 30.7001 60.4222 30.5667 60.0667 30.5667ZM55.4 33.6334H50.7333C50.3778 33.7223 50.1333 33.8778 50 34.1001C49.8667 34.3223 49.8667 34.5667 50 34.8334C50.1333 35.1001 50.3778 35.2334 50.7333 35.2334H55.4C55.7556 35.2334 56 35.1001 56.1333 34.8334C56.2667 34.5667 56.2667 34.3223 56.1333 34.1001C56 33.8778 55.7556 33.7223 55.4 33.6334Z" fill="white"/>
</svg>
