<svg width="313" height="310" viewBox="0 0 313 310" fill="none" xmlns="http://www.w3.org/2000/svg">
<mask id="mask0_770_72" style="mask-type:alpha" maskUnits="userSpaceOnUse" x="0" y="0" width="313" height="310">
<rect width="313" height="310" fill="#D9D9D9"/>
</mask>
<g mask="url(#mask0_770_72)">
<path opacity="0.3" d="M45.5 153.5C45.5 92.1964 95.1964 42.5 156.5 42.5C217.804 42.5 267.5 92.1964 267.5 153.5L267.5 357.5L45.4999 357.5L45.5 153.5Z" stroke="white" stroke-width="3"/>
<path opacity="0.3" d="M1.49997 156.5C1.49999 70.8959 70.8959 1.50001 156.5 1.50003C242.104 1.50004 311.5 70.8959 311.5 156.5L311.5 357.5L1.49994 357.5L1.49997 156.5Z" stroke="white" stroke-width="3"/>
<path opacity="0.3" d="M290.5 159.031L292 159.031L292 164.094L290.5 164.094L290.5 169.156L292 169.156L292 174.219L290.5 174.219L290.5 179.281L292 179.281L292 184.344L290.5 184.344L290.5 189.406L292 189.406L292 194.469L290.5 194.469L290.5 199.531L292 199.531L292 204.594L290.5 204.594L290.5 209.656L292 209.656L292 214.719L290.5 214.719L290.5 219.781L292 219.781L292 224.844L290.5 224.844L290.5 229.906L292 229.906L292 234.969L290.5 234.969L290.5 240.031L292 240.031L292 245.094L290.5 245.094L290.5 250.156L292 250.156L292 255.219L290.5 255.219L290.5 260.281L292 260.281L292 265.344L290.5 265.344L290.5 270.406L292 270.406L292 275.469L290.5 275.469L290.5 280.531L292 280.531L292 285.594L290.5 285.594L290.5 290.656L292 290.656L292 295.719L290.5 295.719L290.5 300.781L292 300.781L292 305.844L290.5 305.844L290.5 310.906L292 310.906L292 315.969L290.5 315.969L290.5 321.031L292 321.031L292 326.094L290.5 326.094L290.5 331.156L292 331.156L292 336.219L290.5 336.219L290.5 341.281L292 341.281L292 346.344L290.5 346.344L290.5 351.406L292 351.406L292 356.469L290.5 356.469L290.5 357.5L289.491 357.5L289.491 359L284.472 359L284.472 357.5L279.454 357.5L279.454 359L274.435 359L274.435 357.5L269.417 357.5L269.417 359L264.398 359L264.398 357.5L259.38 357.5L259.38 359L254.361 359L254.361 357.5L249.343 357.5L249.343 359L244.324 359L244.324 357.5L239.306 357.5L239.306 359L234.287 359L234.287 357.5L229.269 357.5L229.269 359L224.25 359L224.25 357.5L219.231 357.5L219.231 359L214.213 359L214.213 357.5L209.194 357.5L209.194 359L204.176 359L204.176 357.5L199.157 357.5L199.157 359L194.139 359L194.139 357.5L189.12 357.5L189.12 359L184.102 359L184.102 357.5L179.083 357.5L179.083 359L174.065 359L174.065 357.5L169.046 357.5L169.046 359L164.028 359L164.028 357.5L159.009 357.5L159.009 359L153.991 359L153.991 357.5L148.972 357.5L148.972 359L143.954 359L143.954 357.5L138.935 357.5L138.935 359L133.917 359L133.917 357.5L128.898 357.5L128.898 359L123.88 359L123.88 357.5L118.861 357.5L118.861 359L113.843 359L113.843 357.5L108.824 357.5L108.824 359L103.806 359L103.806 357.5L98.787 357.5L98.787 359L93.7685 359L93.7685 357.5L88.75 357.5L88.75 359L83.7314 359L83.7314 357.5L78.7129 357.5L78.7129 359L73.6944 359L73.6944 357.5L68.6759 357.5L68.6759 359L63.6574 359L63.6574 357.5L58.6388 357.5L58.6388 359L53.6203 359L53.6203 357.5L48.6018 357.5L48.6018 359L43.5833 359L43.5833 357.5L38.5648 357.5L38.5648 359L33.5462 359L33.5462 357.5L28.5277 357.5L28.5277 359L23.5092 359L23.5092 357.5L22.4999 357.5L22.4999 356.469L20.9999 356.469L20.9999 351.406L22.4999 351.406L22.4999 346.344L20.9999 346.344L20.9999 341.281L22.4999 341.281L22.4999 336.219L20.9999 336.219L20.9999 331.156L22.4999 331.156L22.4999 326.094L20.9999 326.094L20.9999 321.031L22.4999 321.031L22.4999 315.969L20.9999 315.969L20.9999 310.906L22.4999 310.906L22.5 305.844L21 305.844L21 300.781L22.5 300.781L22.5 295.719L21 295.719L21 290.656L22.5 290.656L22.5 285.594L21 285.594L21 280.531L22.5 280.531L22.5 275.469L21 275.469L21 270.406L22.5 270.406L22.5 265.344L21 265.344L21 260.281L22.5 260.281L22.5 255.219L21 255.219L21 250.156L22.5 250.156L22.5 245.094L21 245.094L21 240.031L22.5 240.031L22.5 234.969L21 234.969L21 229.906L22.5 229.906L22.5 224.844L21 224.844L21 219.781L22.5 219.781L22.5 214.719L21 214.719L21 209.656L22.5 209.656L22.5 204.594L21 204.594L21 199.531L22.5 199.531L22.5 194.469L21 194.469L21 189.406L22.5 189.406L22.5 184.344L21 184.344L21 179.281L22.5 179.281L22.5 174.219L21 174.219L21 169.156L22.5 169.156L22.5 164.094L21 164.094L21 159.031L22.5 159.031L22.5 156.5C22.5 155.66 22.5077 154.821 22.5231 153.984L21.0234 153.957C21.0545 152.263 21.1168 150.576 21.2096 148.898L22.7073 148.981C22.8 147.306 22.9234 145.639 23.077 143.98L21.5834 143.842C21.7399 142.153 21.9274 140.473 22.1453 138.802L23.6327 138.996C23.8494 137.335 24.0966 135.683 24.3736 134.041L22.8945 133.792C23.1762 132.122 23.4884 130.463 23.8305 128.815L25.2992 129.12C25.6399 127.479 26.0105 125.849 26.4106 124.231L24.9544 123.871C25.361 122.227 25.7976 120.594 26.2636 118.974L27.7052 119.388C28.1679 117.779 28.6599 116.183 29.1807 114.6L27.7558 114.131C28.2844 112.524 28.8423 110.93 29.4288 109.35L30.835 109.872C31.4175 108.303 32.0285 106.748 32.6674 105.207L31.2818 104.632C31.9301 103.069 32.6069 101.52 33.3114 99.987L34.6744 100.613C35.3728 99.0933 36.0989 97.5886 36.852 96.0998L35.5134 95.4228C36.2767 93.9138 37.0674 92.421 37.8848 90.9451L39.197 91.6719C40.0072 90.2091 40.8439 88.7631 41.7066 87.3344L40.4225 86.5591C41.2967 85.1113 42.1972 83.6813 43.1234 82.2696L44.3775 83.0924C45.2947 81.6944 46.2372 80.3147 47.2046 78.9537L45.982 78.0847C46.9612 76.7071 47.9656 75.3485 48.9944 74.0097L50.1838 74.9237C51.2022 73.5985 52.2448 72.2928 53.311 71.0074L52.1564 70.0498C53.2353 68.749 54.3381 67.4688 55.464 66.2097L56.5822 67.2096C57.6961 65.9639 58.833 64.7392 59.9922 63.5362L58.912 62.4954C60.0842 61.2788 61.2789 60.0841 62.4954 58.9119L63.5362 59.9921C64.7393 58.833 65.964 57.6961 67.2096 56.5821L66.2097 55.464C67.4688 54.3381 68.7491 53.2353 70.0499 52.1564L71.0075 53.3109C72.2929 52.2447 73.5985 51.2021 74.9238 50.1838L74.0098 48.9944C75.3486 47.9656 76.7071 46.9612 78.0848 45.982L78.9538 47.2046C80.3147 46.2372 81.6945 45.2947 83.0924 44.3775L82.2696 43.1233C83.6813 42.1972 85.1114 41.2967 86.5591 40.4225L87.3345 41.7066C88.7631 40.8439 90.2092 40.0072 91.672 39.197L90.9452 37.8848C92.4211 37.0674 93.9139 36.2767 95.4228 35.5134L96.0999 36.852C97.5887 36.0989 99.0934 35.3728 100.613 34.6744L99.9871 33.3114C101.52 32.6069 103.069 31.9301 104.632 31.2818L105.207 32.6674C106.748 32.0285 108.303 31.4175 109.872 30.835L109.35 29.4288C110.93 28.8423 112.524 28.2844 114.131 27.7558L114.6 29.1807C116.183 28.6599 117.78 28.1679 119.388 27.7052L118.974 26.2637C120.594 25.7976 122.227 25.361 123.871 24.9545L124.231 26.4106C125.849 26.0105 127.479 25.6399 129.12 25.2992L128.815 23.8305C130.463 23.4884 132.122 23.1762 133.792 22.8945L134.041 24.3736C135.683 24.0966 137.335 23.8494 138.996 23.6327L138.802 22.1453C140.473 21.9274 142.153 21.7399 143.842 21.5835L143.98 23.0771C145.639 22.9234 147.306 22.8 148.981 22.7074L148.898 21.2097C150.577 21.1169 152.263 21.0546 153.957 21.0234L153.984 22.5232C154.821 22.5078 155.66 22.5 156.5 22.5C157.34 22.5 158.179 22.5078 159.016 22.5232L159.043 21.0234C160.737 21.0546 162.424 21.1169 164.102 21.2097L164.019 22.7074C165.694 22.8 167.362 22.9235 169.02 23.0771L169.158 21.5835C170.847 21.74 172.527 21.9274 174.198 22.1453L174.004 23.6327C175.665 23.8495 177.317 24.0966 178.959 24.3736L179.208 22.8945C180.878 23.1762 182.537 23.4884 184.185 23.8306L183.88 25.2992C185.521 25.6399 187.151 26.0106 188.769 26.4107L189.129 24.9545C190.774 25.3611 192.406 25.7977 194.027 26.2637L193.612 27.7053C195.221 28.168 196.817 28.66 198.4 29.1807L198.869 27.7558C200.476 28.2844 202.07 28.8423 203.65 29.4288L203.128 30.8351C204.697 31.4175 206.253 32.0285 207.793 32.6675L208.368 31.2819C209.931 31.9302 211.48 32.6069 213.013 33.3114L212.387 34.6744C213.907 35.3729 215.411 36.0989 216.9 36.852L217.577 35.5135C219.086 36.2768 220.579 37.0674 222.055 37.8849L221.328 39.1971C222.791 40.0072 224.237 40.844 225.666 41.7066L226.441 40.4226C227.889 41.2967 229.319 42.1972 230.73 43.1234L229.908 44.3776C231.306 45.2947 232.685 46.2373 234.046 47.2046L234.915 45.982C236.293 46.9613 237.652 47.9656 238.99 48.9944L238.076 50.1838C239.402 51.2022 240.707 52.2448 241.993 53.311L242.95 52.1564C244.251 53.2353 245.531 54.3381 246.79 55.4641L245.79 56.5822C247.036 57.6961 248.261 58.833 249.464 59.9922L250.505 58.912C251.721 60.0842 252.916 61.2789 254.088 62.4955L253.008 63.5362C254.167 64.7393 255.304 65.964 256.418 67.2096L257.536 66.2098C258.662 67.4688 259.765 68.7491 260.844 70.0499L259.689 71.0075C260.755 72.2929 261.798 73.5986 262.816 74.9238L264.006 74.0098C265.034 75.3486 266.039 76.7071 267.018 78.0848L265.795 78.9538C266.763 80.3147 267.705 81.6945 268.623 83.0924L269.877 82.2696C270.803 83.6813 271.703 85.1114 272.578 86.5591L271.293 87.3345C272.156 88.7631 272.993 90.2092 273.803 91.672L275.115 90.9452C275.933 92.4211 276.723 93.9139 277.487 95.4229L276.148 96.0999C276.901 97.5887 277.627 99.0934 278.326 100.613L279.689 99.9871C280.393 101.52 281.07 103.069 281.718 104.632L280.333 105.207C280.972 106.748 281.583 108.303 282.165 109.872L283.571 109.35C284.158 110.93 284.716 112.524 285.244 114.131L283.819 114.6C284.34 116.183 284.832 117.78 285.295 119.388L286.736 118.974C287.202 120.594 287.639 122.227 288.046 123.871L286.589 124.231C286.99 125.849 287.36 127.479 287.701 129.12L289.17 128.815C289.512 130.463 289.824 132.122 290.106 133.792L288.626 134.041C288.903 135.683 289.151 137.335 289.367 138.997L290.855 138.802C291.073 140.473 291.26 142.153 291.417 143.842L289.923 143.98C290.077 145.639 290.2 147.306 290.293 148.981L291.79 148.898C291.883 150.577 291.945 152.263 291.977 153.957L290.477 153.984C290.492 154.821 290.5 155.66 290.5 156.5L290.5 159.031Z" stroke="white" stroke-width="3" stroke-dasharray="5 5"/>
</g>
</svg>
