<svg width="90" height="90" viewBox="0 0 90 90" fill="none" xmlns="http://www.w3.org/2000/svg">
<rect width="90" height="90" rx="8" fill="#2AAA94"/>
<g clip-path="url(#clip0_708_293)">
<path d="M44.9902 41.5C44.9013 41.5 44.8125 41.5 44.7236 41.5L28.8569 35.6333C28.5013 35.4556 28.3236 35.1889 28.3236 34.8333C28.3236 34.4778 28.5013 34.2111 28.8569 34.0333L39.6569 30.0333C39.9236 29.9444 40.1458 29.9667 40.3236 30.1C40.5013 30.2333 40.6347 30.3889 40.7236 30.5667C40.8125 30.7444 40.8125 30.9444 40.7236 31.1667C40.6347 31.3889 40.5013 31.5444 40.3236 31.6333L31.5236 34.8333L44.9902 39.7667L58.4569 34.8333L49.6569 31.6333C49.4791 31.5444 49.3458 31.3889 49.2569 31.1667C49.168 30.9444 49.168 30.7444 49.2569 30.5667C49.3458 30.3889 49.4791 30.2333 49.6569 30.1C49.8347 29.9667 50.0569 29.9444 50.3236 30.0333L61.1236 34.0333C61.4791 34.2111 61.6569 34.4778 61.6569 34.8333C61.6569 35.1889 61.4791 35.4556 61.1236 35.6333L45.2569 41.5H44.9902ZM44.9902 61.5C44.9013 61.5 44.8125 61.5 44.7236 61.5L35.7902 58.1667C35.6125 58.0778 35.4791 57.9444 35.3902 57.7667C35.3013 57.5889 35.3013 57.3889 35.3902 57.1667C35.4791 56.9444 35.6125 56.7889 35.7902 56.7C35.968 56.6111 36.1902 56.5667 36.4569 56.5667L44.9902 59.7667L53.5236 56.5667C53.7902 56.5667 54.0125 56.6111 54.1902 56.7C54.368 56.7889 54.5013 56.9444 54.5902 57.1667C54.6791 57.3889 54.6791 57.5889 54.5902 57.7667C54.5013 57.9444 54.368 58.0778 54.1902 58.1667L45.2569 61.5H44.9902ZM29.1236 51.1C28.9458 51.1 28.768 51.0111 28.5902 50.8333C28.4125 50.6556 28.3236 50.4778 28.3236 50.3V34.8333C28.3236 34.5667 28.4125 34.3667 28.5902 34.2333C28.768 34.1 28.968 34.0333 29.1902 34.0333C29.4125 34.0333 29.6125 34.1 29.7902 34.2333C29.968 34.3667 30.0569 34.5667 30.0569 34.8333V50.3C30.0569 50.4778 29.968 50.6556 29.7902 50.8333C29.6125 51.0111 29.3902 51.1 29.1236 51.1ZM60.8569 51.1C60.5902 51.1 60.368 51.0111 60.1902 50.8333C60.0125 50.6556 59.9236 50.4778 59.9236 50.3V34.8333C59.9236 34.5667 60.0125 34.3667 60.1902 34.2333C60.368 34.1 60.568 34.0333 60.7902 34.0333C61.0125 34.0333 61.2125 34.1 61.3902 34.2333C61.568 34.3667 61.6569 34.5667 61.6569 34.8333V50.3C61.6569 50.4778 61.568 50.6556 61.3902 50.8333C61.2125 51.0111 61.0347 51.1 60.8569 51.1ZM44.9902 34.8333C44.7236 34.8333 44.5236 34.7444 44.3902 34.5667C44.2569 34.3889 44.1902 34.2111 44.1902 34.0333V27.3667C44.1902 27.1 44.2569 26.8778 44.3902 26.7C44.5236 26.5222 44.7236 26.4556 44.9902 26.5C45.2569 26.5444 45.4569 26.6333 45.5902 26.7667C45.7236 26.9 45.7902 27.1 45.7902 27.3667V34.0333C45.7902 34.2111 45.7236 34.3889 45.5902 34.5667C45.4569 34.7444 45.2569 34.8333 44.9902 34.8333ZM59.9236 57.2333C59.6569 57.2333 59.4347 57.1444 59.2569 56.9667L55.2569 52.9667C55.0791 52.7889 54.9902 52.5889 54.9902 52.3667C54.9902 52.1444 55.0791 51.9444 55.2569 51.7667C55.4347 51.5889 55.6347 51.5 55.8569 51.5C56.0791 51.5 56.2791 51.5889 56.4569 51.7667L60.4569 55.7667C60.6347 55.9444 60.7236 56.1444 60.7236 56.3667C60.7236 56.5889 60.6347 56.7889 60.4569 56.9667C60.2791 57.1444 60.1013 57.2333 59.9236 57.2333ZM30.0569 57.2333C29.8791 57.2333 29.7013 57.1444 29.5236 56.9667C29.3458 56.7889 29.2569 56.5889 29.2569 56.3667C29.2569 56.1444 29.3458 55.9444 29.5236 55.7667L33.5236 51.7667C33.7013 51.5889 33.9013 51.5 34.1236 51.5C34.3458 51.5 34.5458 51.5889 34.7236 51.7667C34.9013 51.9444 34.9902 52.1444 34.9902 52.3667C34.9902 52.5889 34.9013 52.7889 34.7236 52.9667L30.7236 56.9667C30.5458 57.1444 30.3236 57.2333 30.0569 57.2333ZM44.9902 61.5C44.7236 61.5 44.5236 61.4111 44.3902 61.2333C44.2569 61.0556 44.1902 60.8778 44.1902 60.7V40.7C44.1902 40.4333 44.2569 40.2111 44.3902 40.0333C44.5236 39.8556 44.7236 39.7667 44.9902 39.7667C45.2569 39.7667 45.4569 39.8556 45.5902 40.0333C45.7236 40.2111 45.7902 40.4333 45.7902 40.7V60.7C45.7902 60.8778 45.7236 61.0556 45.5902 61.2333C45.4569 61.4111 45.2569 61.5 44.9902 61.5ZM44.9902 28.1667C44.1013 28.1667 43.3236 27.8333 42.6569 27.1667C41.9902 26.5 41.6569 25.7222 41.6569 24.8333C41.6569 23.9444 41.9902 23.1667 42.6569 22.5C43.3236 21.8333 44.1013 21.5 44.9902 21.5C45.8791 21.5 46.6569 21.8333 47.3236 22.5C47.9902 23.1667 48.3236 23.9444 48.3236 24.8333C48.3236 25.7222 47.9902 26.5 47.3236 27.1667C46.6569 27.8333 45.8791 28.1667 44.9902 28.1667ZM44.9902 23.1C44.5458 23.1 44.168 23.2778 43.8569 23.6333C43.5458 23.9889 43.3902 24.3889 43.3902 24.8333C43.3902 25.2778 43.5458 25.6556 43.8569 25.9667C44.168 26.2778 44.5458 26.4333 44.9902 26.4333C45.4347 26.4333 45.8347 26.2778 46.1902 25.9667C46.5458 25.6556 46.7236 25.2778 46.7236 24.8333C46.7236 24.3889 46.5458 23.9889 46.1902 23.6333C45.8347 23.2778 45.4347 23.1 44.9902 23.1ZM61.6569 61.5C60.768 61.5 59.9902 61.1667 59.3236 60.5C58.6569 59.8333 58.3236 59.0556 58.3236 58.1667C58.3236 57.2778 58.6569 56.5 59.3236 55.8333C59.9902 55.1667 60.768 54.8333 61.6569 54.8333C62.5458 54.8333 63.3236 55.1667 63.9902 55.8333C64.6569 56.5 64.9902 57.2778 64.9902 58.1667C64.9902 59.0556 64.6569 59.8333 63.9902 60.5C63.3236 61.1667 62.5458 61.5 61.6569 61.5ZM61.6569 56.4333C61.2125 56.4333 60.8125 56.6111 60.4569 56.9667C60.1013 57.3222 59.9458 57.7222 59.9902 58.1667C60.0347 58.6111 60.2125 59.0111 60.5236 59.3667C60.8347 59.7222 61.2125 59.8778 61.6569 59.8333C62.1013 59.7889 62.5013 59.6111 62.8569 59.3C63.2125 58.9889 63.3902 58.6111 63.3902 58.1667C63.3902 57.7222 63.2125 57.3222 62.8569 56.9667C62.5013 56.6111 62.1013 56.4333 61.6569 56.4333ZM28.3236 61.5C27.4347 61.5 26.6569 61.1667 25.9902 60.5C25.3236 59.8333 24.9902 59.0556 24.9902 58.1667C24.9902 57.2778 25.3236 56.5 25.9902 55.8333C26.6569 55.1667 27.4347 54.8333 28.3236 54.8333C29.2125 54.8333 29.9902 55.1667 30.6569 55.8333C31.3236 56.5 31.6569 57.2778 31.6569 58.1667C31.6569 59.0556 31.3236 59.8333 30.6569 60.5C29.9902 61.1667 29.2125 61.5 28.3236 61.5ZM28.3236 56.4333C27.8791 56.5222 27.4791 56.7222 27.1236 57.0333C26.768 57.3444 26.6125 57.7222 26.6569 58.1667C26.7013 58.6111 26.8791 59.0111 27.1902 59.3667C27.5013 59.7222 27.8791 59.8778 28.3236 59.8333C28.768 59.7889 29.168 59.6111 29.5236 59.3C29.8791 58.9889 30.0347 58.6111 29.9902 58.1667C29.9458 57.7222 29.768 57.3222 29.4569 56.9667C29.1458 56.6111 28.768 56.4333 28.3236 56.4333Z" fill="white"/>
</g>
<defs>
<clipPath id="clip0_708_293">
<rect width="40.02" height="40" fill="white" transform="matrix(1 0 0 -1 24.9805 61.5)"/>
</clipPath>
</defs>
</svg>
