<svg width="90" height="90" viewBox="0 0 90 90" fill="none" xmlns="http://www.w3.org/2000/svg">
<rect width="90" height="90" rx="8" fill="#FAB437"/>
<g clip-path="url(#clip0_708_290)">
<path d="M60.0667 45.9C57.0444 44.3 53.2667 43.3222 48.7333 42.9667L48.8667 41.6333C49.3111 41.5444 49.6889 41.3 50 40.9C50.3111 40.5 50.4667 40.0333 50.4667 39.5V33.2333C50.4667 32.1667 50.2 31.2111 49.6667 30.3667C49.1333 29.5222 48.4222 28.8778 47.5333 28.4333C48.4222 27.6333 48.8889 26.6778 48.9333 25.5667C48.9778 24.4556 48.6222 23.5 47.8667 22.7C47.1111 21.9 46.1556 21.5 45 21.5C43.8444 21.5 42.9111 21.9 42.2 22.7C41.4889 23.5 41.1333 24.4556 41.1333 25.5667C41.1333 26.6778 41.5778 27.6333 42.4667 28.4333C41.5778 28.8778 40.8667 29.5222 40.3333 30.3667C39.8 31.2111 39.5333 32.1667 39.5333 33.2333V39.5C39.5333 40.0333 39.6889 40.5 40 40.9C40.3111 41.3 40.6889 41.5444 41.1333 41.6333L41.2667 42.9667C37.1778 43.3222 33.7556 44.1222 31 45.3667C27.1778 47.0556 25.1778 49.3222 25 52.1667C25.1778 54.3889 26.4667 56.2556 28.8667 57.7667C30.8222 59.0111 33.4444 59.9889 36.7333 60.7C39.4889 61.2333 42.2222 61.5 44.9333 61.5C47.6444 61.5 50.1778 61.2778 52.5333 60.8333C54.8889 60.3889 57 59.7667 58.8667 58.9667C61.3556 57.9 63.0889 56.5667 64.0667 54.9667C65.0444 53.3667 65.2 51.7444 64.5333 50.1C63.8667 48.4556 62.3778 47.0556 60.0667 45.9ZM41.9333 50.4333C41.9333 51.1444 42.1556 51.7 42.6 52.1C43.0444 52.5 43.5778 52.7 44.2 52.7H45.8C46.4222 52.7 46.9556 52.5 47.4 52.1C47.8444 51.7 48.1111 51.1444 48.2 50.4333L48.3333 48.0333C50.6444 48.3 52.4889 48.7667 53.8667 49.4333C55.2444 50.1 55.9333 50.7889 55.9333 51.5C55.7556 52.3 54.9556 53.0111 53.5333 53.6333C52.3778 54.1667 50.9111 54.5667 49.1333 54.8333C47.6222 55.0111 46.2444 55.1222 45 55.1667C43.7556 55.2111 42.3778 55.1 40.8667 54.8333C39.0889 54.5667 37.6222 54.1667 36.4667 53.6333C35.0444 53.0111 34.2444 52.3 34.0667 51.5C34.0667 50.7889 34.7778 50.1 36.2 49.4333C37.6222 48.7667 39.4444 48.3 41.6667 48.0333L41.9333 50.4333ZM42.7333 25.3667C42.7333 24.7444 42.9556 24.2111 43.4 23.7667C43.8444 23.3222 44.3778 23.1 45 23.1C45.9778 23.1 46.6667 23.4778 47.0667 24.2333C47.4667 24.9889 47.4667 25.7444 47.0667 26.5C46.6667 27.2556 45.9778 27.6778 45 27.7667C44.3778 27.7667 43.8444 27.5444 43.4 27.1C42.9556 26.6556 42.7333 26.0778 42.7333 25.3667ZM41.1333 39.5V33.2333C41.1333 31.9889 41.5333 31.0333 42.3333 30.3667C43.1333 29.7 44.0444 29.3667 45.0667 29.3667C46.0889 29.3667 46.9778 29.7 47.7333 30.3667C48.4889 31.0333 48.8667 31.9889 48.8667 33.2333V39.5C48.8667 39.6778 48.8 39.8556 48.6667 40.0333C48.5333 40.2111 48.3556 40.3 48.1333 40.3C47.9111 40.3 47.7333 40.3667 47.6 40.5C47.4667 40.6333 47.4 40.7889 47.4 40.9667L46.6 50.3C46.6 50.5667 46.5111 50.7889 46.3333 50.9667C46.1556 51.1444 45.9778 51.2333 45.8 51.2333H44.2C44.0222 51.2333 43.8667 51.1444 43.7333 50.9667C43.6 50.7889 43.4889 50.5667 43.4 50.3L42.7333 40.9667C42.6444 40.7889 42.5333 40.6333 42.4 40.5C42.2667 40.3667 42.0889 40.3 41.8667 40.3C41.6444 40.3 41.4667 40.2111 41.3333 40.0333C41.2 39.8556 41.1333 39.6778 41.1333 39.5ZM58.3333 57.5C56.0222 58.5667 53.2222 59.2778 49.9333 59.6333C46.6444 59.9889 43.3556 59.9889 40.0667 59.6333C36.7778 59.2778 34.0222 58.5667 31.8 57.5C30.1111 56.7889 28.8222 55.9667 27.9333 55.0333C27.0444 54.1 26.6 53.1444 26.6 52.1667C26.7778 49.8556 28.6444 47.9889 32.2 46.5667C34.8667 45.5 37.9333 44.7889 41.4 44.4333L41.5333 46.4333C39.1333 46.7889 37.1556 47.3444 35.6 48.1C34.0444 48.8556 33.0889 49.7 32.7333 50.6333C32.3778 51.5667 32.5556 52.4556 33.2667 53.3C33.9778 54.1444 35.0444 54.8333 36.4667 55.3667C38.6889 56.2556 41.5333 56.7 45 56.7C48.4667 56.7 51.3111 56.2556 53.5333 55.3667C55.0444 54.8333 56.1333 54.1444 56.8 53.3C57.4667 52.4556 57.6444 51.5667 57.3333 50.6333C57.0222 49.7 56.0889 48.8556 54.5333 48.1C52.9778 47.3444 50.9556 46.7889 48.4667 46.4333L48.6 44.4333C52.9556 44.8778 56.5556 45.8111 59.4 47.2333C61.3556 48.3 62.6 49.4556 63.1333 50.7C63.6667 51.9444 63.5111 53.1667 62.6667 54.3667C61.8222 55.5667 60.3778 56.6111 58.3333 57.5Z" fill="white"/>
</g>
<defs>
<clipPath id="clip0_708_290">
<rect width="40.02" height="40" fill="white" transform="matrix(1 0 0 -1 24.9902 61.5)"/>
</clipPath>
</defs>
</svg>
