<svg width="20" height="21" viewBox="0 0 20 21" fill="none" xmlns="http://www.w3.org/2000/svg">
<path d="M18.4276 17.2942L16.0943 14.8942C16.9831 13.8275 17.5387 12.6275 17.7609 11.2942C17.9831 9.96088 17.872 8.64977 17.4276 7.36088C16.9831 6.07199 16.2498 4.96088 15.2276 4.02755C14.2054 3.09421 13.0276 2.4831 11.6943 2.19421C10.3609 1.90532 9.0387 1.93866 7.72759 2.29421C6.41648 2.64977 5.27203 3.31643 4.29425 4.29421C3.31648 5.27199 2.64981 6.41644 2.29425 7.72755C1.9387 9.03866 1.90536 10.3609 2.19425 11.6942C2.48314 13.0275 3.09425 14.2053 4.02759 15.2275C4.96092 16.2498 6.07203 16.9831 7.36092 17.4275C8.64981 17.872 9.96092 17.9831 11.2943 17.7609C12.6276 17.5387 13.8276 16.9831 14.8943 16.0942L17.2943 18.4275C17.4276 18.6053 17.6165 18.6942 17.8609 18.6942C18.1054 18.6942 18.3054 18.6164 18.4609 18.4609C18.6165 18.3053 18.6943 18.1053 18.6943 17.8609C18.6943 17.6164 18.6054 17.4275 18.4276 17.2942ZM3.69425 9.96088C3.69425 8.80532 3.97203 7.74977 4.52759 6.79421C5.08314 5.83866 5.8387 5.0831 6.79425 4.52755C7.74981 3.97199 8.79425 3.69421 9.92759 3.69421C11.0609 3.69421 12.1054 3.97199 13.0609 4.52755C14.0165 5.0831 14.7831 5.83866 15.3609 6.79421C15.9387 7.74977 16.2276 8.79421 16.2276 9.92755C16.2276 11.0609 15.9387 12.1053 15.3609 13.0609C14.7831 14.0164 14.0165 14.772 13.0609 15.3275C12.1054 15.8831 11.0609 16.1609 9.92759 16.1609C8.79425 16.1609 7.74981 15.8831 6.79425 15.3275C5.8387 14.772 5.08314 14.0164 4.52759 13.0609C3.97203 12.1053 3.69425 11.072 3.69425 9.96088Z" fill="white"/>
</svg>
