<svg width="22" height="22" viewBox="0 0 22 22" fill="none" xmlns="http://www.w3.org/2000/svg">
<g clip-path="url(#clip0_708_105)">
<path d="M9.68945 0C8.35742 0 7.10417 0.250651 5.92969 0.751953C4.74089 1.26758 3.70964 1.96224 2.83594 2.83594C1.96224 3.70964 1.26758 4.74089 0.751953 5.92969C0.250651 7.10417 0 8.35742 0 9.68945C0 11.0215 0.250651 12.2747 0.751953 13.4492C1.26758 14.6237 1.96224 15.6514 2.83594 16.5322C3.70964 17.4131 4.74089 18.1042 5.92969 18.6055C7.10417 19.1211 8.35742 19.3789 9.68945 19.3789C11.0215 19.3789 12.2747 19.1211 13.4492 18.6055C14.6237 18.1042 15.6514 17.4131 16.5322 16.5322C17.4131 15.6514 18.1042 14.6237 18.6055 13.4492C19.1211 12.2747 19.3789 11.0215 19.3789 9.68945C19.3789 8.35742 19.1211 7.10417 18.6055 5.92969C18.1042 4.74089 17.4131 3.70964 16.5322 2.83594C15.6514 1.96224 14.6237 1.26758 13.4492 0.751953C12.2747 0.250651 11.0215 0 9.68945 0ZM9.68945 17.5957C8.60091 17.5957 7.57682 17.388 6.61719 16.9727C5.65755 16.5573 4.81966 15.9915 4.10352 15.2754C3.38737 14.5592 2.82161 13.7214 2.40625 12.7617C1.99089 11.8021 1.7832 10.778 1.7832 9.68945C1.7832 8.60091 1.99089 7.57682 2.40625 6.61719C2.82161 5.65755 3.38737 4.81966 4.10352 4.10352C4.81966 3.38737 5.65755 2.82161 6.61719 2.40625C7.57682 1.99089 8.60091 1.7832 9.68945 1.7832C10.778 1.7832 11.8021 1.99089 12.7617 2.40625C13.7214 2.82161 14.5592 3.38737 15.2754 4.10352C15.9915 4.81966 16.5573 5.65755 16.9727 6.61719C17.388 7.57682 17.5957 8.60091 17.5957 9.68945C17.5957 10.778 17.388 11.8021 16.9727 12.7617C16.5573 13.7214 15.9915 14.5592 15.2754 15.2754C14.5592 15.9915 13.7214 16.5573 12.7617 16.9727C11.8021 17.388 10.778 17.5957 9.68945 17.5957ZM21.7422 20.4746L16.6074 15.3398C16.4355 15.168 16.2243 15.082 15.9736 15.082C15.723 15.082 15.5117 15.168 15.3398 15.3398C15.168 15.5117 15.082 15.723 15.082 15.9736C15.082 16.2243 15.168 16.4355 15.3398 16.6074L20.4746 21.7422C20.5605 21.8281 20.6572 21.8926 20.7646 21.9355C20.8721 21.9785 20.9831 22 21.0977 22C21.2122 22 21.3268 21.9785 21.4414 21.9355C21.556 21.8926 21.6562 21.8281 21.7422 21.7422C21.9141 21.5703 22 21.359 22 21.1084C22 20.8577 21.9141 20.6465 21.7422 20.4746Z" fill="#1B2336"/>
</g>
<defs>
<clipPath id="clip0_708_105">
<rect width="22" height="22" fill="white" transform="matrix(1 0 0 -1 0 22)"/>
</clipPath>
</defs>
</svg>
