<svg width="208" height="313" viewBox="0 0 208 313" fill="none" xmlns="http://www.w3.org/2000/svg">
<mask id="mask0_770_78" style="mask-type:alpha" maskUnits="userSpaceOnUse" x="-151" y="0" width="359" height="314">
<path opacity="0.2" d="M54.5 267.5L-149.5 267.5L-149.5 45.5001L54.5 45.5001C115.804 45.5001 165.5 95.1965 165.5 156.5C165.5 217.804 115.804 267.5 54.5 267.5Z" stroke="white" stroke-width="3"/>
<path opacity="0.2" d="M51.4999 311.5L-149.5 311.5L-149.5 1.50004L51.5 1.50009C137.104 1.50011 206.5 70.896 206.5 156.5C206.5 242.104 137.104 311.5 51.4999 311.5Z" stroke="white" stroke-width="3"/>
<path opacity="0.2" d="M51.5 22.5001C52.4804 22.5001 53.4584 22.5106 54.4337 22.5316L54.466 21.0319C56.4449 21.0744 58.4134 21.1593 60.3706 21.2858L60.2739 22.7827C62.2265 22.9089 64.1676 23.0769 66.0964 23.2858L66.258 21.7945C68.2241 22.0075 70.1776 22.2625 72.1175 22.5586L71.8912 24.0415C73.8259 24.3368 75.7469 24.6735 77.6533 25.0507L77.9444 23.5792C79.8847 23.963 81.81 24.3883 83.7195 24.854L83.364 26.3113C85.2631 26.7745 87.1464 27.2781 89.0127 27.8213L89.4319 26.3811C91.3291 26.9332 93.2091 27.5257 95.071 28.1576L94.5889 29.578C96.4385 30.2057 98.2699 30.8727 100.082 31.578L100.626 30.1801C102.466 30.8963 104.287 31.6515 106.087 32.4447L105.482 33.8173C107.268 34.6045 109.034 35.4295 110.779 36.2914L111.443 34.9466C113.212 35.8208 114.96 36.7325 116.685 37.6807L115.962 38.9951C117.672 39.9351 119.359 40.9114 121.022 41.9229L121.802 40.6413C123.488 41.6664 125.149 42.7274 126.786 43.823L125.951 45.0695C127.572 46.1547 129.169 47.2744 130.739 48.4276L131.627 47.2186C133.216 48.386 134.779 49.5873 136.315 50.8213L135.375 51.9905C136.895 53.212 138.388 54.466 139.853 55.7514L140.842 54.624C142.324 55.9244 143.777 57.2566 145.2 58.6195L144.163 59.7029C145.57 61.0511 146.949 62.4296 148.297 63.8375L149.381 62.8001C150.744 64.2235 152.076 65.6765 153.376 67.1581L152.249 68.1476C153.534 69.6121 154.788 71.1049 156.01 72.625L157.179 71.6853C158.413 73.221 159.614 74.7841 160.781 76.3736L159.573 77.2615C160.726 78.8315 161.845 80.4276 162.931 82.0487L164.177 81.2142C165.273 82.8507 166.334 84.5124 167.359 86.1983L166.077 86.9777C167.089 88.6411 168.065 90.3282 169.005 92.0381L170.319 91.3154C171.268 93.0401 172.179 94.7876 173.053 96.557L171.709 97.2214C172.571 98.9658 173.396 100.732 174.183 102.518L175.555 101.913C176.349 103.713 177.104 105.534 177.82 107.374L176.422 107.918C177.127 109.73 177.794 111.562 178.422 113.411L179.843 112.929C180.474 114.791 181.067 116.671 181.619 118.568L180.179 118.987C180.722 120.854 181.226 122.737 181.689 124.636L183.146 124.281C183.612 126.19 184.037 128.115 184.421 130.056L182.949 130.347C183.327 132.253 183.663 134.174 183.959 136.109L185.441 135.883C185.738 137.823 185.993 139.776 186.206 141.742L184.714 141.904C184.923 143.832 185.091 145.774 185.217 147.726L186.714 147.63C186.841 149.587 186.926 151.555 186.968 153.534L185.468 153.566C185.489 154.542 185.5 155.52 185.5 156.5C185.5 157.481 185.489 158.459 185.468 159.434L186.968 159.466C186.926 161.445 186.841 163.414 186.714 165.371L185.217 165.274C185.091 167.227 184.923 169.168 184.714 171.097L186.206 171.258C185.993 173.224 185.738 175.178 185.441 177.118L183.959 176.891C183.663 178.826 183.327 180.747 182.949 182.654L184.421 182.945C184.037 184.885 183.612 186.81 183.146 188.72L181.689 188.364C181.226 190.263 180.722 192.147 180.179 194.013L181.619 194.432C181.067 196.329 180.474 198.209 179.842 200.071L178.422 199.589C177.794 201.439 177.127 203.27 176.422 205.082L177.82 205.626C177.104 207.466 176.349 209.287 175.555 211.087L174.183 210.482C173.396 212.269 172.571 214.034 171.709 215.779L173.053 216.443C172.179 218.213 171.268 219.96 170.319 221.685L169.005 220.962C168.065 222.672 167.089 224.359 166.077 226.023L167.359 226.802C166.334 228.488 165.273 230.15 164.177 231.786L162.931 230.952C161.845 232.573 160.726 234.169 159.573 235.739L160.781 236.627C159.614 238.216 158.413 239.779 157.179 241.315L156.01 240.375C154.788 241.895 153.534 243.388 152.249 244.853L153.376 245.842C152.076 247.324 150.744 248.777 149.381 250.2L148.297 249.163C146.949 250.571 145.57 251.949 144.163 253.297L145.2 254.381C143.777 255.744 142.324 257.076 140.842 258.376L139.853 257.249C138.388 258.534 136.895 259.788 135.375 261.01L136.315 262.179C134.779 263.413 133.216 264.614 131.627 265.782L130.739 264.573C129.169 265.726 127.572 266.846 125.951 267.931L126.786 269.177C125.149 270.273 123.488 271.334 121.802 272.359L121.022 271.077C119.359 272.089 117.672 273.065 115.962 274.005L116.685 275.32C114.96 276.268 113.212 277.179 111.443 278.054L110.779 276.709C109.034 277.571 107.268 278.396 105.482 279.183L106.087 280.556C104.287 281.349 102.466 282.104 100.626 282.82L100.082 281.422C98.2698 282.128 96.4384 282.795 94.5889 283.422L95.071 284.843C93.2091 285.475 91.3291 286.067 89.4319 286.619L89.0127 285.179C87.1463 285.722 85.2631 286.226 83.364 286.689L83.7194 288.146C81.81 288.612 79.8846 289.037 77.9444 289.421L77.6533 287.95C75.7469 288.327 73.8258 288.663 71.8912 288.959L72.1175 290.442C70.1776 290.738 68.2241 290.993 66.2579 291.206L66.0964 289.714C64.1676 289.923 62.2265 290.091 60.2738 290.218L60.3706 291.714C58.4134 291.841 56.4449 291.926 54.4659 291.968L54.4337 290.469C53.4583 290.49 52.4804 290.5 51.4999 290.5L48.522 290.5L48.522 292L42.5661 292L42.5661 290.5L36.6102 290.5L36.6102 292L30.6543 292L30.6543 290.5L24.6985 290.5L24.6985 292L18.7426 292L18.7426 290.5L12.7867 290.5L12.7867 292L6.83083 292L6.83083 290.5L0.874956 290.5L0.874956 292L-5.08093 292L-5.08093 290.5L-11.0368 290.5L-11.0368 292L-16.9927 292L-16.9927 290.5L-22.9486 290.5L-22.9486 292L-28.9044 292L-28.9044 290.5L-34.8603 290.5L-34.8603 292L-40.8162 292L-40.8162 290.5L-46.7721 290.5L-46.7721 292L-52.728 292L-52.728 290.5L-58.6838 290.5L-58.6838 292L-64.6397 292L-64.6397 290.5L-70.5956 290.5L-70.5956 292L-76.5515 292L-76.5515 290.5L-82.5074 290.5L-82.5074 292L-88.4633 292L-88.4633 290.5L-94.4191 290.5L-94.4191 292L-100.375 292L-100.375 290.5L-106.331 290.5L-106.331 292L-112.287 292L-112.287 290.5L-118.243 290.5L-118.243 292L-124.199 292L-124.199 290.5L-130.154 290.5L-130.154 292L-136.11 292L-136.11 290.5L-142.066 290.5L-142.066 292L-148.022 292L-148.022 290.5L-149.5 290.5L-149.5 289.054L-151 289.054L-151 283.163L-149.5 283.163L-149.5 277.272L-151 277.272L-151 271.381L-149.5 271.381L-149.5 265.489L-151 265.489L-151 259.598L-149.5 259.598L-149.5 253.707L-151 253.707L-151 247.815L-149.5 247.815L-149.5 241.924L-151 241.924L-151 236.033L-149.5 236.033L-149.5 230.141L-151 230.141L-151 224.25L-149.5 224.25L-149.5 218.359L-151 218.359L-151 212.467L-149.5 212.467L-149.5 206.576L-151 206.576L-151 200.685L-149.5 200.685L-149.5 194.794L-151 194.794L-151 188.902L-149.5 188.902L-149.5 183.011L-151 183.011L-151 177.12L-149.5 177.12L-149.5 171.228L-151 171.228L-151 165.337L-149.5 165.337L-149.5 159.446L-151 159.446L-151 153.554L-149.5 153.554L-149.5 147.663L-151 147.663L-151 141.772L-149.5 141.772L-149.5 135.881L-151 135.881L-151 129.989L-149.5 129.989L-149.5 124.098L-151 124.098L-151 118.207L-149.5 118.207L-149.5 112.315L-151 112.315L-151 106.424L-149.5 106.424L-149.5 100.533L-151 100.533L-151 94.6413L-149.5 94.6413L-149.5 88.75L-151 88.75L-151 82.8587L-149.5 82.8587L-149.5 76.9674L-151 76.9674L-151 71.0761L-149.5 71.0761L-149.5 65.1848L-151 65.1848L-151 59.2935L-149.5 59.2935L-149.5 53.4021L-151 53.4021L-151 47.5108L-149.5 47.5108L-149.5 41.6195L-151 41.6195L-151 35.7282L-149.5 35.7282L-149.5 29.8369L-151 29.8369L-151 23.9456L-149.5 23.9456L-149.5 22.5L-148.022 22.5L-148.022 21L-142.066 21.0001L-142.066 22.5001L-136.11 22.5001L-136.11 21.0001L-130.154 21.0001L-130.154 22.5001L-124.198 22.5001L-124.198 21.0001L-118.243 21.0001L-118.243 22.5001L-112.287 22.5001L-112.287 21.0001L-106.331 21.0001L-106.331 22.5001L-100.375 22.5001L-100.375 21.0001L-94.4191 21.0001L-94.4191 22.5001L-88.4632 22.5001L-88.4632 21.0001L-82.5073 21.0001L-82.5073 22.5001L-76.5515 22.5001L-76.5515 21.0001L-70.5956 21.0001L-70.5956 22.5001L-64.6397 22.5001L-64.6397 21.0001L-58.6838 21.0001L-58.6838 22.5001L-52.7279 22.5001L-52.7279 21.0001L-46.772 21.0001L-46.772 22.5001L-40.8162 22.5001L-40.8162 21.0001L-34.8603 21.0001L-34.8603 22.5001L-28.9044 22.5001L-28.9044 21.0001L-22.9485 21.0001L-22.9485 22.5001L-16.9926 22.5001L-16.9926 21.0001L-11.0367 21.0001L-11.0367 22.5001L-5.08087 22.5001L-5.08087 21.0001L0.875015 21.0001L0.875015 22.5001L6.8309 22.5001L6.8309 21.0001L12.7868 21.0001L12.7868 22.5001L18.7427 22.5001L18.7427 21.0001L24.6986 21.0001L24.6986 22.5001L30.6545 22.5001L30.6545 21.0001L36.6104 21.0001L36.6104 22.5001L42.5662 22.5001L42.5662 21.0001L48.5221 21.0001L48.5221 22.5001L51.5 22.5001Z" stroke="white" stroke-width="3" stroke-dasharray="6 6"/>
</mask>
<g mask="url(#mask0_770_78)">
<rect width="208" height="313" fill="#D9D9D9"/>
</g>
</svg>
